<?xml version="1.0" encoding="UTF-8"?>
<svg id="Ebene_1" xmlns="http://www.w3.org/2000/svg" version="1.1" viewBox="0 0 339.4 323.3">
  <!-- Generator: Adobe Illustrator 30.5.0, SVG Export Plug-In . SVG Version: 2.1.4 Build 167)  -->
  <path d="M18.4,23.2c-2.5,1.9-3.6,2.7-5.8,5.4-6.3,7.4-4.3,23.2-7.2,33.9-3.1,14.2-4.1,27.9-4.4,42.5-3.2,21.3,2.2,43.2,10.4,62.9,2,4.8,5.5,9.2,5.2,14.9-1.3,21.4,11.4,40,20.6,58.3,3,5.7,6.9,11.1,8,17.7,5.2,19.1,26.1,28.6,43.2,34.9,31.2,8.1,59.2,27.4,91.9,29,36.8,3.9,68.4-15.2,101.9-25.3,41.5-11.6,48.3-41.8,57.2-78.4-.5-14-2-28-3.1-42.1-1.2-7.7-3.8-15.2-3.5-23.2,2.5-29.8-9-57.7-17.8-85.6C287.6,9.5,223.2-1.6,164.5.2c-49.1,2-100.2.1-145.3,22.6"/>
</svg>